<?xml version="1.0" encoding="utf-8"?>
<!-- Generator: Adobe Illustrator 24.0.0, SVG Export Plug-In . SVG Version: 6.00 Build 0)  -->
<svg version="1.1" id="Layer_1" xmlns="http://www.w3.org/2000/svg" xmlns:xlink="http://www.w3.org/1999/xlink" x="0px" y="0px"
	 viewBox="0 0 80 24" style="enable-background:new 0 0 80 24;" xml:space="preserve">
<style type="text/css">
	.st1{fill:#FFFFFF;transform:scale(0.52) translate(0px,-2px);}
	.st2{fill:#FFFFFF;}
</style>
<path class="st1" d="M 25 3 C 12.85 3 3 12.85 3 25 C 3 37.15 12.85 47 25 47 C 37.15 47 47 37.15 47 25 C 47 12.85 37.15 3 25 3 z M 25 11 C 32.72 11 39 17.28 39 25 C 39 32.72 32.72 39 25 39 C 17.28 39 11 32.72 11 25 C 11 17.28 17.28 11 25 11 z M 25 13 C 18.383 13 13 18.383 13 25 C 13 31.617 18.383 37 25 37 C 31.617 37 37 31.617 37 25 C 37 18.383 31.617 13 25 13 z M 22.019531 18.501953 C 22.194031 18.505203 22.366984 18.552484 22.521484 18.646484 L 31.521484 24.146484 C 31.817484 24.327484 32 24.651 32 25 C 32 25.349 31.818484 25.671516 31.521484 25.853516 L 22.521484 31.353516 C 22.361484 31.450516 22.181 31.5 22 31.5 C 21.832 31.5 21.663719 31.456094 21.511719 31.371094 C 21.195719 31.194094 21 30.861 21 30.5 L 21 19.5 C 21 19.139 21.195719 18.805906 21.511719 18.628906 C 21.670219 18.540906 21.845031 18.498703 22.019531 18.501953 z"/>
<path class="st2" d="M37.4,9.6c-0.6,2.9-1,6.3-1.2,7.8H36c-0.2-1.5-0.6-4.9-1.2-7.7l-1.5-7h-4.5v18.9h2.8V6l0.3,1.5l2.9,14.1h2.8l2.8-14.1
	L40.6,6v15.5h2.8V2.7h-4.6C38.9,2.7,37.4,9.6,37.4,9.6z"/>
<path class="st2" d="M51,18.7c-0.3,0.5-0.8,0.9-1.4,0.9c-0.6,0-0.9-0.5-0.9-1.7V7.8h-3.2V18c0,2.5,0.9,3.7,2.8,3.7c1.3,0,2.3-0.6,3.1-1.9h0.1
	l0.3,1.7h2.5V7.8H51L51,18.7L51,18.7L51,18.7z"/>
<path class="st2" d="M60.4,13.2c-1-0.7-1.7-1.2-1.7-2.3c0-0.8,0.4-1.2,1.2-1.2c0.9,0,1.2,0.6,1.2,2.7l2.7-0.1c0.2-3.3-0.9-4.7-3.9-4.7
	c-2.7,0-4.1,1.2-4.1,3.6c0,2.2,1.1,3.2,2.9,4.6c1.6,1.2,2.5,1.8,2.5,2.8c0,0.7-0.5,1.2-1.3,1.2c-1,0-1.5-0.9-1.4-2.4l-2.7,0
	c-0.4,2.9,0.8,4.5,3.9,4.5c2.8,0,4.2-1.2,4.2-3.7C64.1,15.9,62.9,15,60.4,13.2z"/>
<polygon class="st2" points="68.9,7.8 65.8,7.8 65.8,21.5 68.9,21.5 68.9,7.8 "/>
<path class="st2" d="M67.4,2.3c-1.2,0-1.7,0.4-1.7,1.9c0,1.5,0.6,1.9,1.7,1.9c1.2,0,1.7-0.4,1.7-1.9C69.1,2.8,68.6,2.3,67.4,2.3z"/>
<path class="st2" d="M79.2,16.6l-2.8-0.1c0,2.4-0.3,3.2-1.2,3.2c-0.9,0-1.1-0.9-1.1-3.7v-2.7c0-2.8,0.2-3.6,1.1-3.6c0.9,0,1.1,0.8,1.1,3.4
	l2.8-0.2c0.2-2.1-0.1-3.6-0.9-4.4c-0.6-0.6-1.6-0.9-2.9-0.9c-3.1,0-4.4,1.6-4.4,6.2v1.9c0,4.7,1.1,6.2,4.3,6.2
	c1.3,0,2.3-0.3,2.9-0.9C78.9,20.1,79.2,18.7,79.2,16.6L79.2,16.6z"/>
</svg>
